<svg width="208" height="85" viewBox="0 0 208 85" fill="none" xmlns="http://www.w3.org/2000/svg">
<path d="M104 61.2543C123.529 61.2543 139.36 52.8575 139.36 42.5001C139.36 32.1422 123.529 23.7458 104 23.7458C84.4713 23.7458 68.64 32.1422 68.64 42.5001C68.64 52.8575 84.4713 61.2543 104 61.2543Z" stroke="#DEB449" stroke-width="0.8" stroke-miterlimit="10"/>
<path d="M104 63.1172C126.791 63.1172 145.267 53.8867 145.267 42.5C145.267 31.1134 126.791 21.8828 104 21.8828C81.209 21.8828 62.7328 31.1134 62.7328 42.5C62.7328 53.8867 81.209 63.1172 104 63.1172Z" stroke="#DEB449" stroke-width="0.8" stroke-miterlimit="10"/>
<path d="M104 65.022C130.054 65.022 151.174 54.9386 151.174 42.5004C151.174 30.0617 130.054 19.9788 104 19.9788C77.9463 19.9788 56.8256 30.0617 56.8256 42.5004C56.8256 54.9386 77.9463 65.022 104 65.022Z" stroke="#DEB449" stroke-width="0.8" stroke-miterlimit="10"/>
<path d="M104 66.8849C133.316 66.8849 157.082 55.9677 157.082 42.5003C157.082 29.0329 133.316 18.1157 104 18.1157C74.6836 18.1157 50.9184 29.0329 50.9184 42.5003C50.9184 55.9677 74.6836 66.8849 104 66.8849Z" stroke="#DEB449" stroke-width="0.8" stroke-miterlimit="10"/>
<path d="M104 68.7887C136.556 68.7887 162.947 57.0187 162.947 42.4997C162.947 27.9807 136.556 16.2107 104 16.2107C71.4443 16.2107 45.0528 27.9807 45.0528 42.4997C45.0528 57.0187 71.4443 68.7887 104 68.7887Z" stroke="#DEB449" stroke-width="0.8" stroke-miterlimit="10"/>
<path d="M104 70.6515C139.818 70.6515 168.854 58.0477 168.854 42.4999C168.854 26.9517 139.818 14.3479 104 14.3479C68.182 14.3479 39.1455 26.9517 39.1455 42.4999C39.1455 58.0477 68.182 70.6515 104 70.6515Z" stroke="#DEB449" stroke-width="0.8" stroke-miterlimit="10"/>
<path d="M104 72.5564C143.081 72.5564 174.762 59.0998 174.762 42.5C174.762 25.9003 143.081 12.4436 104 12.4436C64.9193 12.4436 33.2383 25.9003 33.2383 42.5C33.2383 59.0998 64.9193 72.5564 104 72.5564Z" stroke="#DEB449" stroke-width="0.8" stroke-miterlimit="10"/>
<path d="M104 74.4194C146.343 74.4194 180.669 60.1289 180.669 42.5C180.669 24.8714 146.343 10.5806 104 10.5806C61.657 10.5806 27.3312 24.8714 27.3312 42.5C27.3312 60.1289 61.657 74.4194 104 74.4194Z" stroke="#DEB449" stroke-width="0.8" stroke-miterlimit="10"/>
<path d="M104 76.2828C149.606 76.2828 186.576 61.1577 186.576 42.5004C186.576 23.8427 149.606 8.71802 104 8.71802C58.3947 8.71802 21.4241 23.8427 21.4241 42.5004C21.4241 61.1577 58.3947 76.2828 104 76.2828Z" stroke="#DEB449" stroke-width="0.8" stroke-miterlimit="10"/>
<path d="M104 78.1863C152.868 78.1863 192.483 62.2089 192.483 42.4996C192.483 22.7903 152.868 6.81274 104 6.81274C55.1321 6.81274 15.5167 22.7903 15.5167 42.4996C15.5167 62.2089 55.1321 78.1863 104 78.1863Z" stroke="#DEB449" stroke-width="0.8" stroke-miterlimit="10"/>
<path d="M104 80.0493C156.13 80.0493 198.39 63.238 198.39 42.4995C198.39 21.7614 156.13 4.94971 104 4.94971C51.8698 4.94971 9.60959 21.7614 9.60959 42.4995C9.60959 63.238 51.8698 80.0493 104 80.0493Z" stroke="#DEB449" stroke-width="0.8" stroke-miterlimit="10"/>
<path d="M104 81.9543C159.37 81.9543 204.256 64.2897 204.256 42.5001C204.256 20.71 159.37 3.0459 104 3.0459C48.6304 3.0459 3.74411 20.71 3.74411 42.5001C3.74411 64.2897 48.6304 81.9543 104 81.9543Z" stroke="#DEB449" stroke-width="0.8" stroke-miterlimit="10"/>
</svg>
